<svg width="174" height="40" viewBox="0 0 174 40" fill="none" xmlns="http://www.w3.org/2000/svg">
<g clip-path="url(#clip0_3_37)">
<path fill-rule="evenodd" clip-rule="evenodd" d="M10.2732 2.5V40H0V2.5H10.2732Z" fill="#283841"/>
<path fill-rule="evenodd" clip-rule="evenodd" d="M15.4098 2.5H37.2404C44.3326 2.5 50.0819 8.09644 50.0819 15C50.0819 21.9036 44.3326 27.5 37.2404 27.5H25.683V40H15.4098V2.5ZM25.683 17.5H37.2404C38.6589 17.5 39.8087 16.3807 39.8087 15C39.8087 13.6193 38.6589 12.5 37.2404 12.5H25.683V17.5Z" fill="#283841"/>
<path fill-rule="evenodd" clip-rule="evenodd" d="M88.6065 2.5V21.875C88.6065 26.3623 92.3435 30 96.9535 30C101.563 30 105.301 26.3623 105.301 21.875V2.5H115.574V21.875C115.574 31.8852 107.237 40 96.9535 40C86.6698 40 78.3333 31.8852 78.3333 21.875V2.5H88.6065Z" fill="#283841"/>
<path fill-rule="evenodd" clip-rule="evenodd" d="M53.9344 20C53.9344 10.335 61.9835 2.5 71.9125 2.5H74.4808V12.5H71.9125C67.6572 12.5 64.2076 15.8579 64.2076 20V21.25C64.2076 31.6053 55.5836 40 44.9453 40H43.6612V30H44.9453C49.9099 30 53.9344 26.0825 53.9344 21.25V20Z" fill="#283841"/>
<path d="M173.361 3.75C173.361 5.82107 171.636 7.5 169.508 7.5C167.38 7.5 165.656 5.82107 165.656 3.75C165.656 1.67893 167.38 0 169.508 0C171.636 0 173.361 1.67893 173.361 3.75Z" fill="#283841"/>
<path d="M126.605 40L131.507 20.0181L135.151 32.0393C137.324 39.2091 147.758 39.2091 149.931 32.0393L153.575 20.0181L158.477 40H169.039L161.331 8.5795C159.498 1.10745 148.681 0.830788 146.447 8.19892L142.541 21.0833L138.635 8.19893C136.402 0.830831 125.584 1.10741 123.751 8.57949L116.043 40H126.605Z" fill="#283841"/>
</g>
<defs>
<clipPath id="clip0_3_37">
<rect width="173.361" height="40" fill="white"/>
</clipPath>
</defs>
</svg>
